# xmcd
#
# Track frame offsets:
#	150
#	16109
#	34929
#	51620
#	66277
#	82659
#	99611
#
# Disc length: 1573 seconds
#
# Revision: 1
# Processed by: cddbd v1.4PL0 Copyright (c) Steve Scherf et al.
# Submitted via: EasyCDDAExtractor 5.1.0
#
DISCID=53062307
DTITLE=Jon Parker - City of the Roses
DYEAR=2003
DGENRE=Acoustic
TTITLE0=Nothing
TTITLE1=En Mi Cabesa
TTITLE2=Origami
TTITLE3=City of the Roses
TTITLE4=After You
TTITLE5=Tearing Up My Life
TTITLE6=Like A Fragrance
EXTD=
EXTT0=
EXTT1=
EXTT2=
EXTT3=
EXTT4=
EXTT5=
EXTT6=
PLAYORDER=
